# WaveFront *.obj file (generated by Autodesk ATF)

mtllib top.mtl

g Body131

v -1.750000 6.814278 -1.007156
v -1.750000 6.319113 -1.007156
v -1.750000 6.319113 -0.957156
v -1.750000 6.814278 -0.957156
v -0.000000 5.864278 -1.007156
v -0.000000 5.864278 -0.957156
v 1.750000 6.814278 -1.007156
v 1.750000 6.814278 -0.957156
v 1.750000 6.319113 -1.007156
v 1.750000 6.319113 -0.957156
vt -0.495165 0.000000 0.000000
vt -0.000000 0.000000 0.000000
vt -0.495165 0.050000 0.000000
vt -0.000000 0.050000 0.000000
vt -1.808141 -0.000000 0.000000
vt -0.000000 0.000000 0.000000
vt -1.808141 0.050000 0.000000
vt 0.000000 0.050000 0.000000
vt 0.000000 0.000000 0.000000
vt 3.500000 -0.000000 0.000000
vt -0.000000 0.050000 0.000000
vt 3.500000 0.050000 0.000000
vt 0.000000 0.000000 0.000000
vt 0.495165 0.000000 0.000000
vt 0.000000 0.050000 0.000000
vt 0.495165 0.050000 0.000000
vt 0.000000 0.000000 0.000000
vt 1.808141 0.000000 0.000000
vt 0.000000 0.050000 0.000000
vt 1.808141 0.050000 0.000000
vt -0.875000 -0.475000 0.000000
vt 0.875000 -0.020165 0.000000
vt -2.625000 -0.020165 0.000000
vt -2.625000 0.475000 0.000000
vt 0.875000 0.475000 0.000000
vt -0.475000 2.625000 0.000000
vt -0.475000 -0.875000 0.000000
vt 0.020165 2.625000 0.000000
vt 0.020165 -0.875000 0.000000
vt 0.475000 0.875000 0.000000
vn -1.000000 0.000000 -0.000000
vn -1.000000 0.000000 -0.000000
vn -1.000000 0.000000 -0.000000
vn -1.000000 0.000000 -0.000000
vn -0.251548 -0.967845 -0.000000
vn -0.251548 -0.967845 -0.000000
vn -0.251548 -0.967845 -0.000000
vn -0.251548 -0.967845 -0.000000
vn 0.000000 1.000000 0.000000
vn 0.000000 1.000000 0.000000
vn 0.000000 1.000000 0.000000
vn 0.000000 1.000000 0.000000
vn 1.000000 0.000000 0.000000
vn 1.000000 0.000000 0.000000
vn 1.000000 0.000000 0.000000
vn 1.000000 0.000000 0.000000
vn 0.251548 -0.967845 0.000000
vn 0.251548 -0.967845 0.000000
vn 0.251548 -0.967845 0.000000
vn 0.251548 -0.967845 0.000000
vn -0.000000 0.000000 1.000000
vn -0.000000 0.000000 1.000000
vn -0.000000 0.000000 1.000000
vn -0.000000 0.000000 1.000000
vn -0.000000 0.000000 1.000000
vn 0.000000 -0.000000 -1.000000
vn 0.000000 -0.000000 -1.000000
vn 0.000000 -0.000000 -1.000000
vn 0.000000 -0.000000 -1.000000
vn 0.000000 -0.000000 -1.000000
usemtl Steel_-_Satin
f 1/1/1 2/2/2 4/3/3
f 4/3/3 2/2/2 3/4/4
f 2/5/5 5/6/6 3/7/7
f 3/7/7 5/6/6 6/8/8
f 7/9/9 1/10/10 8/11/11
f 8/11/11 1/10/10 4/12/12
f 9/13/13 7/14/14 10/15/15
f 10/15/15 7/14/14 8/16/16
f 5/17/17 9/18/18 6/19/19
f 6/19/19 9/18/18 10/20/20
f 6/21/21 10/22/22 3/23/23
f 3/23/23 10/22/22 4/24/24
f 4/24/24 10/22/22 8/25/25
f 1/26/26 7/27/27 2/28/28
f 2/28/28 7/27/27 9/29/29
f 2/28/28 9/29/29 5/30/30
g Body132

v -1.750000 6.319113 -1.007156
v -1.750000 6.864278 -1.007156
v -1.750000 6.814278 -0.957156
v -1.750000 6.319113 -0.957156
v -0.170000 7.024278 -1.007156
v -0.755039 7.886219 -1.007156
v -0.755039 7.886219 -0.957156
v -0.170000 7.024278 -0.957156
v -0.779954 7.915428 -1.007156
v -0.810640 7.938502 -1.007156
v -0.845618 7.954329 -1.007156
v -0.883206 7.962147 -1.007156
v -0.921594 7.961581 -1.007156
v -0.921594 7.961581 -0.957156
v -0.883206 7.962147 -0.957156
v -0.845618 7.954329 -0.957156
v -0.810640 7.938502 -0.957156
v -0.779954 7.915428 -0.957156
v -2.230214 7.797602 -1.007156
v -2.230214 7.797602 -0.957156
v -2.271033 7.787389 -1.007156
v -2.308234 7.767728 -1.007156
v -2.339666 7.739755 -1.007156
v -2.363514 7.705088 -1.007156
v -2.378397 7.665731 -1.007156
v -2.383455 7.623960 -1.007156
v -2.383455 7.623960 -0.957156
v -2.378397 7.665731 -0.957156
v -2.363514 7.705088 -0.957156
v -2.339666 7.739755 -0.957156
v -2.308234 7.767728 -0.957156
v -2.271033 7.787389 -0.957156
v -2.383455 6.619082 -1.007156
v -2.383455 6.619082 -0.957156
v -2.379259 6.580991 -1.007156
v -2.366873 6.544727 -1.007156
v -2.346890 6.512028 -1.007156
v -2.320270 6.484462 -1.007156
v -2.288287 6.463352 -1.007156
v -2.252476 6.449710 -1.007156
v -2.252476 6.449710 -0.957156
v -2.288287 6.463352 -0.957156
v -2.320270 6.484462 -0.957156
v -2.346890 6.512028 -0.957156
v -2.366873 6.544727 -0.957156
v -2.379259 6.580991 -0.957156
v 1.750000 6.864278 -1.007156
v 1.750000 6.814278 -0.957156
v 1.750000 6.319113 -1.007156
v 1.750000 6.319113 -0.957156
v 0.170000 7.024278 -1.007156
v 0.170000 7.024278 -0.957156
v 0.755039 7.886219 -1.007156
v 0.755039 7.886219 -0.957156
v 0.921594 7.961581 -1.007156
v 0.883206 7.962147 -1.007156
v 0.845618 7.954329 -1.007156
v 0.810640 7.938502 -1.007156
v 0.779954 7.915428 -1.007156
v 0.779954 7.915428 -0.957156
v 0.810640 7.938502 -0.957156
v 0.845618 7.954329 -0.957156
v 0.883206 7.962147 -0.957156
v 0.921594 7.961581 -0.957156
v 2.230214 7.797602 -1.007156
v 2.230214 7.797602 -0.957156
v 2.383455 7.623960 -1.007156
v 2.378397 7.665731 -1.007156
v 2.363514 7.705088 -1.007156
v 2.339666 7.739755 -1.007156
v 2.308234 7.767728 -1.007156
v 2.271032 7.787389 -1.007156
v 2.271032 7.787389 -0.957156
v 2.308234 7.767728 -0.957156
v 2.339666 7.739755 -0.957156
v 2.363514 7.705088 -0.957156
v 2.378397 7.665731 -0.957156
v 2.383455 7.623960 -0.957156
v 2.383455 6.619082 -1.007156
v 2.383455 6.619082 -0.957156
v 2.252476 6.449710 -1.007156
v 2.288287 6.463352 -1.007156
v 2.320270 6.484462 -1.007156
v 2.346890 6.512028 -1.007156
v 2.366873 6.544727 -1.007156
v 2.379259 6.580991 -1.007156
v 2.379259 6.580991 -0.957156
v 2.366873 6.544727 -0.957156
v 2.346890 6.512028 -0.957156
v 2.320270 6.484462 -0.957156
v 2.288287 6.463352 -0.957156
v 2.252476 6.449710 -0.957156
vt 0.050000 0.000000 0.000000
vt -0.000000 0.050000 0.000000
vt -0.495165 0.000000 0.000000
vt -0.495165 0.050000 0.000000
vt -1.041735 0.000000 0.000000
vt -0.000000 0.000000 0.000000
vt -1.041735 0.050000 0.000000
vt -0.000000 0.050000 0.000000
vt 0.050000 0.192349 0.000000
vt -0.000000 0.192349 0.000000
vt 0.050000 0.153879 0.000000
vt -0.000000 0.153879 0.000000
vt 0.050000 0.115409 0.000000
vt -0.000000 0.115409 0.000000
vt 0.050000 0.076939 0.000000
vt -0.000000 0.076939 0.000000
vt 0.050000 0.038470 0.000000
vt -0.000000 0.038470 0.000000
vt 0.050000 0.000000 0.000000
vt 0.000000 -0.000000 0.000000
vt -1.318854 -0.000000 0.000000
vt -0.000000 0.000000 0.000000
vt -1.318854 0.050000 0.000000
vt -0.000000 0.050000 0.000000
vt 0.050000 0.253074 0.000000
vt 0.000000 0.253074 0.000000
vt 0.050000 0.210895 0.000000
vt 0.000000 0.210895 0.000000
vt 0.050000 0.168716 0.000000
vt 0.000000 0.168716 0.000000
vt 0.050000 0.126537 0.000000
vt 0.000000 0.126537 0.000000
vt 0.050000 0.084358 0.000000
vt 0.000000 0.084358 0.000000
vt 0.050000 0.042179 0.000000
vt 0.000000 0.042179 0.000000
vt 0.050000 -0.000000 0.000000
vt 0.000000 0.000000 0.000000
vt -1.004877 0.000000 0.000000
vt -0.000000 0.000000 0.000000
vt -1.004877 0.050000 0.000000
vt -0.000000 0.050000 0.000000
vt 0.050000 0.230390 0.000000
vt 0.000000 0.230390 0.000000
vt 0.050000 0.191992 0.000000
vt 0.000000 0.191992 0.000000
vt 0.000000 0.153594 0.000000
vt 0.050000 0.153594 0.000000
vt 0.000000 0.115195 0.000000
vt 0.050000 0.115195 0.000000
vt 0.000000 0.076797 0.000000
vt 0.050000 0.076797 0.000000
vt 0.000000 0.038398 0.000000
vt 0.050000 0.038398 0.000000
vt 0.050000 -0.000000 0.000000
vt 0.000000 0.000000 0.000000
vt -0.519170 0.000000 0.000000
vt -0.000000 0.000000 0.000000
vt -0.519170 0.050000 0.000000
vt 0.000000 0.050000 0.000000
vt 2.345864 0.035355 0.000000
vt -1.154136 0.035355 0.000000
vt 2.345864 -0.035355 0.000000
vt -1.154136 -0.035355 0.000000
vt -0.050000 0.000000 0.000000
vt 0.495165 0.000000 0.000000
vt 0.000000 0.050000 0.000000
vt 0.495165 0.050000 0.000000
vt 0.000000 0.000000 0.000000
vt 0.340000 0.000000 0.000000
vt -0.000000 0.050000 0.000000
vt 0.340000 0.050000 0.000000
vt -0.000000 0.000000 0.000000
vt 1.041735 -0.000000 0.000000
vt -0.000000 0.050000 0.000000
vt 1.041735 0.050000 0.000000
vt -0.050000 -0.000000 0.000000
vt 0.000000 -0.000000 0.000000
vt -0.050000 0.038470 0.000000
vt -0.000000 0.038470 0.000000
vt -0.050000 0.076939 0.000000
vt -0.000000 0.076939 0.000000
vt -0.050000 0.115409 0.000000
vt -0.000000 0.115409 0.000000
vt -0.050000 0.153879 0.000000
vt -0.000000 0.153879 0.000000
vt -0.050000 0.192349 0.000000
vt -0.000000 0.192349 0.000000
vt 0.000000 0.000000 0.000000
vt 1.318854 0.000000 0.000000
vt -0.000000 0.050000 0.000000
vt 1.318854 0.050000 0.000000
vt -0.050000 0.000000 0.000000
vt -0.000000 0.000000 0.000000
vt -0.050000 0.042179 0.000000
vt 0.000000 0.042179 0.000000
vt -0.050000 0.084358 0.000000
vt 0.000000 0.084358 0.000000
vt -0.050000 0.126537 0.000000
vt 0.000000 0.126537 0.000000
vt -0.050000 0.168716 0.000000
vt 0.000000 0.168716 0.000000
vt -0.050000 0.210895 0.000000
vt 0.000000 0.210895 0.000000
vt -0.050000 0.253074 0.000000
vt 0.000000 0.253074 0.000000
vt 0.000000 0.000000 0.000000
vt 1.004877 0.000000 0.000000
vt 0.000000 0.050000 0.000000
vt 1.004877 0.050000 0.000000
vt -0.050000 0.000000 0.000000
vt 0.000000 0.000000 0.000000
vt -0.050000 0.038398 0.000000
vt 0.000000 0.038398 0.000000
vt 0.000000 0.076797 0.000000
vt -0.050000 0.076797 0.000000
vt 0.000000 0.115195 0.000000
vt -0.050000 0.115195 0.000000
vt 0.000000 0.153594 0.000000
vt -0.050000 0.153594 0.000000
vt 0.000000 0.191992 0.000000
vt -0.050000 0.191992 0.000000
vt -0.050000 0.230390 0.000000
vt -0.000000 0.230390 0.000000
vt 0.000000 0.000000 0.000000
vt 0.519170 -0.000000 0.000000
vt 0.000000 0.050000 0.000000
vt 0.519170 0.050000 0.000000
vt -0.594495 -0.558272 0.000000
vt -0.463899 -1.060749 0.000000
vt -0.099330 -0.558272 0.000000
vt -0.368882 -1.175146 0.000000
vt -0.332617 -1.187532 0.000000
vt -0.450256 -1.096559 0.000000
vt -0.429146 -1.128542 0.000000
vt -0.401581 -1.155163 0.000000
vt -0.294526 -1.191728 0.000000
vt 0.710351 -1.191728 0.000000
vt 0.110669 1.021728 0.000000
vt 0.972610 0.436689 0.000000
vt 0.883993 -1.038486 0.000000
vt 1.047972 0.270134 0.000000
vt 0.752123 -1.186669 0.000000
vt 0.791480 -1.171786 0.000000
vt 0.826147 -1.147939 0.000000
vt 0.854119 -1.116506 0.000000
vt 0.873780 -1.079305 0.000000
vt 1.048538 0.308522 0.000000
vt 1.040720 0.346110 0.000000
vt 1.024893 0.381088 0.000000
vt 1.001820 0.411773 0.000000
vt 0.110669 1.361727 0.000000
vt -0.099330 2.941728 0.000000
vt 0.710351 3.575183 0.000000
vt -0.294526 3.575183 0.000000
vt 0.972610 1.946766 0.000000
vt 0.883993 3.421941 0.000000
vt 0.752123 3.570124 0.000000
vt 0.791480 3.555241 0.000000
vt 0.826147 3.531394 0.000000
vt 0.854119 3.499961 0.000000
vt 0.873780 3.462760 0.000000
vt 1.047972 2.113321 0.000000
vt 1.001820 1.971682 0.000000
vt 1.024893 2.002367 0.000000
vt 1.040720 2.037345 0.000000
vt 1.048538 2.074933 0.000000
vt -0.332617 3.570987 0.000000
vt -0.368882 3.558601 0.000000
vt -0.463899 3.444204 0.000000
vt -0.401581 3.538618 0.000000
vt -0.429146 3.511997 0.000000
vt -0.450256 3.480014 0.000000
vt -0.594495 2.941728 0.000000
vt 0.049330 2.941728 0.000000
vt -0.110669 1.361727 0.000000
vt 0.049330 -0.558272 0.000000
vt -0.110669 1.021728 0.000000
vt -0.710351 -1.191728 0.000000
vt -0.972610 0.436689 0.000000
vt -0.883993 -1.038486 0.000000
vt -1.047972 0.270134 0.000000
vt -1.001820 0.411773 0.000000
vt -1.024893 0.381088 0.000000
vt 0.594495 2.941728 0.000000
vt 0.463899 3.444204 0.000000
vt 0.332617 3.570987 0.000000
vt 0.294526 3.575183 0.000000
vt 0.450256 3.480014 0.000000
vt 0.429146 3.511997 0.000000
vt 0.401581 3.538618 0.000000
vt 0.368882 3.558601 0.000000
vt -0.710351 3.575183 0.000000
vt -0.752123 3.570124 0.000000
vt -0.883993 3.421941 0.000000
vt -0.972610 1.946766 0.000000
vt -0.791480 3.555241 0.000000
vt -0.826147 3.531394 0.000000
vt -0.854119 3.499961 0.000000
vt -0.873780 3.462760 0.000000
vt -1.047972 2.113321 0.000000
vt -1.001820 1.971682 0.000000
vt -1.024893 2.002367 0.000000
vt -1.040720 2.037345 0.000000
vt -1.048538 2.074933 0.000000
vt -1.040720 0.346110 0.000000
vt -1.048538 0.308522 0.000000
vt -0.873780 -1.079305 0.000000
vt -0.854119 -1.116506 0.000000
vt -0.826147 -1.147939 0.000000
vt -0.791480 -1.171786 0.000000
vt -0.752123 -1.186669 0.000000
vt 0.294526 -1.191728 0.000000
vt 0.332617 -1.187532 0.000000
vt 0.463899 -1.060749 0.000000
vt 0.368882 -1.175146 0.000000
vt 0.401581 -1.155163 0.000000
vt 0.429146 -1.128542 0.000000
vt 0.450256 -1.096559 0.000000
vt 0.594495 -0.558272 0.000000
vn 1.000000 0.000000 0.000000
vn 1.000000 0.000000 0.000000
vn 1.000000 0.000000 0.000000
vn 1.000000 0.000000 0.000000
vn 0.827409 0.561600 0.000000
vn 0.827409 0.561600 0.000000
vn 0.827409 0.561600 0.000000
vn 0.827409 0.561600 0.000000
vn 0.685034 0.728511 0.000000
vn 0.685034 0.728511 0.000000
vn 0.509689 0.860358 0.000000
vn 0.509689 0.860358 0.000000
vn 0.309813 0.950797 0.000000
vn 0.309813 0.950797 0.000000
vn 0.095026 0.995475 0.000000
vn 0.095026 0.995475 0.000000
vn -0.124335 0.992240 -0.000000
vn -0.124335 0.992240 -0.000000
vn -0.124335 0.992240 -0.000000
vn -0.124335 0.992240 -0.000000
vn -0.357585 0.933881 -0.000000
vn -0.357585 0.933881 -0.000000
vn -0.570163 0.821532 -0.000000
vn -0.570163 0.821532 -0.000000
vn -0.749778 0.661689 -0.000000
vn -0.749778 0.661689 -0.000000
vn -0.886048 0.463593 -0.000000
vn -0.886048 0.463593 -0.000000
vn -0.971094 0.238696 -0.000000
vn -0.971094 0.238696 -0.000000
vn -1.000000 -0.000000 -0.000000
vn -1.000000 -0.000000 -0.000000
vn -1.000000 0.000000 -0.000000
vn -1.000000 0.000000 -0.000000
vn -0.976024 -0.217663 -0.000000
vn -0.976024 -0.217663 -0.000000
vn -0.905246 -0.424889 -0.000000
vn -0.905246 -0.424889 -0.000000
vn -0.791059 -0.611740 -0.000000
vn -0.791059 -0.611740 -0.000000
vn -0.638939 -0.769257 -0.000000
vn -0.638939 -0.769257 -0.000000
vn -0.456181 -0.889887 -0.000000
vn -0.456181 -0.889887 -0.000000
vn -0.251548 -0.967845 -0.000000
vn -0.251548 -0.967845 -0.000000
vn -0.251548 -0.967845 -0.000000
vn -0.251548 -0.967845 -0.000000
vn 0.000000 -0.707107 -0.707107
vn 0.000000 -0.707107 -0.707107
vn 0.000000 -0.707107 -0.707107
vn 0.000000 -0.707107 -0.707107
vn -1.000000 0.000000 -0.000000
vn -1.000000 0.000000 -0.000000
vn -1.000000 0.000000 -0.000000
vn -1.000000 0.000000 -0.000000
vn 0.000000 1.000000 0.000000
vn 0.000000 1.000000 0.000000
vn 0.000000 1.000000 0.000000
vn 0.000000 1.000000 0.000000
vn -0.827409 0.561600 -0.000000
vn -0.827409 0.561600 -0.000000
vn -0.827409 0.561600 -0.000000
vn -0.827409 0.561600 -0.000000
vn 0.124335 0.992240 0.000000
vn 0.124335 0.992240 0.000000
vn -0.095026 0.995475 -0.000000
vn -0.095026 0.995475 -0.000000
vn -0.309813 0.950797 -0.000000
vn -0.309813 0.950797 -0.000000
vn -0.509689 0.860358 -0.000000
vn -0.509689 0.860358 -0.000000
vn -0.685034 0.728511 -0.000000
vn -0.685034 0.728511 -0.000000
vn 0.124335 0.992240 0.000000
vn 0.124335 0.992240 0.000000
vn 1.000000 -0.000000 0.000000
vn 1.000000 -0.000000 0.000000
vn 0.971094 0.238696 0.000000
vn 0.971094 0.238696 0.000000
vn 0.886048 0.463593 0.000000
vn 0.886048 0.463593 0.000000
vn 0.749778 0.661689 0.000000
vn 0.749778 0.661689 0.000000
vn 0.570163 0.821532 0.000000
vn 0.570163 0.821532 0.000000
vn 0.357585 0.933881 0.000000
vn 0.357585 0.933881 0.000000
vn 1.000000 0.000000 0.000000
vn 1.000000 0.000000 0.000000
vn 0.251548 -0.967845 0.000000
vn 0.251548 -0.967845 0.000000
vn 0.456181 -0.889887 0.000000
vn 0.456181 -0.889887 0.000000
vn 0.638939 -0.769257 0.000000
vn 0.638939 -0.769257 0.000000
vn 0.791059 -0.611740 0.000000
vn 0.791059 -0.611740 0.000000
vn 0.905246 -0.424889 0.000000
vn 0.905246 -0.424889 0.000000
vn 0.976024 -0.217663 0.000000
vn 0.976024 -0.217663 0.000000
vn 0.251548 -0.967845 0.000000
vn 0.251548 -0.967845 0.000000
vn -0.000000 0.000000 1.000000
vn -0.000000 0.000000 1.000000
vn -0.000000 0.000000 1.000000
vn -0.000000 0.000000 1.000000
vn -0.000000 0.000000 1.000000
vn -0.000000 0.000000 1.000000
vn -0.000000 0.000000 1.000000
vn -0.000000 0.000000 1.000000
vn -0.000000 0.000000 1.000000
vn -0.000000 0.000000 1.000000
vn -0.000000 0.000000 1.000000
vn -0.000000 0.000000 1.000000
vn -0.000000 0.000000 1.000000
vn -0.000000 0.000000 1.000000
vn -0.000000 0.000000 1.000000
vn -0.000000 0.000000 1.000000
vn -0.000000 0.000000 1.000000
vn -0.000000 0.000000 1.000000
vn -0.000000 0.000000 1.000000
vn -0.000000 0.000000 1.000000
vn -0.000000 0.000000 1.000000
vn -0.000000 0.000000 1.000000
vn -0.000000 0.000000 1.000000
vn -0.000000 0.000000 1.000000
vn -0.000000 0.000000 1.000000
vn -0.000000 0.000000 1.000000
vn -0.000000 0.000000 1.000000
vn -0.000000 0.000000 1.000000
vn -0.000000 0.000000 1.000000
vn -0.000000 0.000000 1.000000
vn -0.000000 0.000000 1.000000
vn -0.000000 0.000000 1.000000
vn -0.000000 0.000000 1.000000
vn -0.000000 0.000000 1.000000
vn -0.000000 0.000000 1.000000
vn -0.000000 0.000000 1.000000
vn -0.000000 0.000000 1.000000
vn -0.000000 0.000000 1.000000
vn -0.000000 0.000000 1.000000
vn -0.000000 0.000000 1.000000
vn -0.000000 0.000000 1.000000
vn -0.000000 0.000000 1.000000
vn -0.000000 0.000000 1.000000
vn -0.000000 0.000000 1.000000
vn -0.000000 0.000000 1.000000
vn -0.000000 0.000000 1.000000
vn 0.000000 -0.000000 -1.000000
vn 0.000000 -0.000000 -1.000000
vn 0.000000 -0.000000 -1.000000
vn 0.000000 -0.000000 -1.000000
vn 0.000000 -0.000000 -1.000000
vn 0.000000 -0.000000 -1.000000
vn 0.000000 -0.000000 -1.000000
vn 0.000000 -0.000000 -1.000000
vn 0.000000 -0.000000 -1.000000
vn 0.000000 -0.000000 -1.000000
vn 0.000000 -0.000000 -1.000000
vn 0.000000 -0.000000 -1.000000
vn 0.000000 -0.000000 -1.000000
vn 0.000000 -0.000000 -1.000000
vn 0.000000 -0.000000 -1.000000
vn 0.000000 -0.000000 -1.000000
vn 0.000000 -0.000000 -1.000000
vn 0.000000 -0.000000 -1.000000
vn 0.000000 -0.000000 -1.000000
vn 0.000000 -0.000000 -1.000000
vn 0.000000 -0.000000 -1.000000
vn 0.000000 -0.000000 -1.000000
vn 0.000000 -0.000000 -1.000000
vn 0.000000 -0.000000 -1.000000
vn 0.000000 -0.000000 -1.000000
vn 0.000000 -0.000000 -1.000000
vn 0.000000 -0.000000 -1.000000
vn 0.000000 -0.000000 -1.000000
vn 0.000000 -0.000000 -1.000000
vn 0.000000 -0.000000 -1.000000
vn 0.000000 -0.000000 -1.000000
vn 0.000000 -0.000000 -1.000000
vn 0.000000 -0.000000 -1.000000
vn 0.000000 -0.000000 -1.000000
vn 0.000000 -0.000000 -1.000000
vn 0.000000 -0.000000 -1.000000
vn 0.000000 -0.000000 -1.000000
vn 0.000000 -0.000000 -1.000000
vn 0.000000 -0.000000 -1.000000
vn 0.000000 -0.000000 -1.000000
vn 0.000000 -0.000000 -1.000000
vn 0.000000 -0.000000 -1.000000
vn 0.000000 -0.000000 -1.000000
vn 0.000000 -0.000000 -1.000000
vn 0.000000 -0.000000 -1.000000
vn 0.000000 -0.000000 -1.000000
f 12/31/31 13/32/32 11/33/33
f 11/33/33 13/32/32 14/34/34
f 15/35/35 16/36/36 18/37/37
f 18/37/37 16/36/36 17/38/38
f 17/39/38 16/40/36 28/41/39
f 28/41/39 16/40/36 19/42/40
f 28/41/39 19/42/40 27/43/41
f 27/43/41 19/42/40 20/44/42
f 27/43/41 20/44/42 26/45/43
f 26/45/43 20/44/42 21/46/44
f 26/45/43 21/46/44 25/47/45
f 25/47/45 21/46/44 22/48/46
f 25/47/45 22/48/46 24/49/47
f 24/49/47 22/48/46 23/50/48
f 23/51/48 29/52/49 24/53/47
f 24/53/47 29/52/49 30/54/50
f 30/55/50 29/56/49 42/57/51
f 42/57/51 29/56/49 31/58/52
f 42/57/51 31/58/52 41/59/53
f 41/59/53 31/58/52 32/60/54
f 41/59/53 32/60/54 40/61/55
f 40/61/55 32/60/54 33/62/56
f 40/61/55 33/62/56 39/63/57
f 39/63/57 33/62/56 34/64/58
f 39/63/57 34/64/58 38/65/59
f 38/65/59 34/64/58 35/66/60
f 38/65/59 35/66/60 37/67/61
f 37/67/61 35/66/60 36/68/62
f 36/69/62 43/70/63 37/71/61
f 37/71/61 43/70/63 44/72/64
f 44/73/64 43/74/63 56/75/65
f 56/75/65 43/74/63 45/76/66
f 56/75/65 45/76/66 46/77/67
f 56/75/65 46/77/67 55/78/68
f 55/78/68 46/77/67 47/79/69
f 55/78/68 47/79/69 54/80/70
f 54/80/70 47/79/69 48/81/71
f 54/80/70 48/81/71 53/82/72
f 53/82/72 48/81/71 49/83/73
f 53/82/72 49/83/73 52/84/74
f 52/84/74 49/83/73 51/85/75
f 51/85/75 49/83/73 50/86/76
f 50/87/76 11/88/77 51/89/75
f 51/89/75 11/88/77 14/90/78
f 12/91/79 57/92/80 13/93/81
f 13/93/81 57/92/80 58/94/82
f 57/95/83 59/96/84 58/97/85
f 58/97/85 59/96/84 60/98/86
f 61/99/87 15/100/88 62/101/89
f 62/101/89 15/100/88 18/102/90
f 63/103/91 61/104/92 64/105/93
f 64/105/93 61/104/92 62/106/94
f 74/107/95 65/108/96 73/109/97
f 73/109/97 65/108/96 66/110/98
f 73/109/97 66/110/98 72/111/99
f 72/111/99 66/110/98 67/112/100
f 72/111/99 67/112/100 71/113/101
f 71/113/101 67/112/100 68/114/102
f 71/113/101 68/114/102 70/115/103
f 70/115/103 68/114/102 69/116/104
f 70/115/103 69/116/104 64/117/93
f 64/117/93 69/116/104 63/118/91
f 75/119/105 65/120/96 76/121/106
f 76/121/106 65/120/96 74/122/95
f 88/123/107 77/124/108 87/125/109
f 87/125/109 77/124/108 78/126/110
f 87/125/109 78/126/110 86/127/111
f 86/127/111 78/126/110 79/128/112
f 86/127/111 79/128/112 85/129/113
f 85/129/113 79/128/112 80/130/114
f 85/129/113 80/130/114 84/131/115
f 84/131/115 80/130/114 81/132/116
f 84/131/115 81/132/116 83/133/117
f 83/133/117 81/132/116 82/134/118
f 83/133/117 82/134/118 76/135/106
f 76/135/106 82/134/118 75/136/105
f 89/137/119 77/138/108 90/139/120
f 90/139/120 77/138/108 88/140/107
f 102/141/121 91/142/122 101/143/123
f 101/143/123 91/142/122 92/144/124
f 101/143/123 92/144/124 93/145/125
f 101/143/123 93/145/125 100/146/126
f 100/146/126 93/145/125 94/147/127
f 100/146/126 94/147/127 99/148/128
f 99/148/128 94/147/127 95/149/129
f 99/148/128 95/149/129 98/150/130
f 98/150/130 95/149/129 96/151/131
f 98/150/130 96/151/131 97/152/132
f 97/152/132 96/151/131 90/153/120
f 90/153/120 96/151/131 89/154/119
f 59/155/133 91/156/122 60/157/134
f 60/157/134 91/156/122 102/158/121
f 60/159/135 102/160/136 58/161/137
f 58/161/137 102/160/136 98/162/138
f 58/161/137 98/162/138 97/163/139
f 101/164/140 100/165/141 102/160/136
f 102/160/136 100/165/141 99/166/142
f 102/160/136 99/166/142 98/162/138
f 97/163/139 90/167/143 58/161/137
f 58/161/137 90/167/143 88/168/144
f 58/161/137 88/168/144 62/169/145
f 62/169/145 88/168/144 64/170/146
f 64/170/146 88/168/144 76/171/147
f 64/170/146 76/171/147 74/172/148
f 88/168/144 87/173/149 76/171/147
f 76/171/147 87/173/149 86/174/150
f 76/171/147 86/174/150 85/175/151
f 85/175/151 84/176/152 76/171/147
f 76/171/147 84/176/152 83/177/153
f 73/178/154 72/179/155 74/172/148
f 74/172/148 72/179/155 71/180/156
f 74/172/148 71/180/156 70/181/157
f 70/181/157 64/170/146 74/172/148
f 62/169/145 18/182/158 58/161/137
f 58/161/137 18/182/158 13/183/159
f 13/183/159 18/182/158 37/184/160
f 13/183/159 37/184/160 44/185/161
f 18/182/158 17/186/162 37/184/160
f 37/184/160 17/186/162 30/187/163
f 37/184/160 30/187/163 38/188/164
f 38/188/164 30/187/163 39/189/165
f 39/189/165 30/187/163 40/190/166
f 40/190/166 30/187/163 41/191/167
f 41/191/167 30/187/163 42/192/168
f 30/187/163 17/186/162 24/193/169
f 24/193/169 17/186/162 28/194/170
f 24/193/169 28/194/170 27/195/171
f 27/195/171 26/196/172 24/193/169
f 24/193/169 26/196/172 25/197/173
f 44/185/161 56/198/174 13/183/159
f 13/183/159 56/198/174 55/199/175
f 13/183/159 55/199/175 51/200/176
f 51/200/176 55/199/175 54/201/177
f 51/200/176 54/201/177 53/202/178
f 53/202/178 52/203/179 51/200/176
f 51/200/176 14/204/180 13/183/159
f 12/205/181 15/206/182 57/207/183
f 57/207/183 15/206/182 61/208/184
f 57/207/183 61/208/184 77/209/185
f 77/209/185 61/208/184 63/210/186
f 77/209/185 63/210/186 75/211/187
f 75/211/187 63/210/186 65/212/188
f 65/212/188 63/210/186 69/213/189
f 65/212/188 69/213/189 68/214/190
f 11/215/191 50/216/192 12/205/181
f 12/205/181 50/216/192 45/217/193
f 12/205/181 45/217/193 43/218/194
f 49/219/195 48/220/196 50/216/192
f 50/216/192 48/220/196 47/221/197
f 50/216/192 47/221/197 46/222/198
f 46/222/198 45/217/193 50/216/192
f 43/218/194 36/223/199 12/205/181
f 12/205/181 36/223/199 15/206/182
f 35/224/200 29/225/201 36/223/199
f 36/223/199 29/225/201 16/226/202
f 36/223/199 16/226/202 15/206/182
f 35/224/200 34/227/203 29/225/201
f 29/225/201 34/227/203 33/228/204
f 29/225/201 33/228/204 32/229/205
f 32/229/205 31/230/206 29/225/201
f 29/225/201 23/231/207 16/226/202
f 16/226/202 23/231/207 19/232/208
f 19/232/208 23/231/207 20/233/209
f 20/233/209 23/231/207 21/234/210
f 21/234/210 23/231/207 22/235/211
f 68/214/190 67/236/212 65/212/188
f 65/212/188 67/236/212 66/237/213
f 82/238/214 81/239/215 75/211/187
f 75/211/187 81/239/215 80/240/216
f 75/211/187 80/240/216 79/241/217
f 79/241/217 78/242/218 75/211/187
f 75/211/187 78/242/218 77/209/185
f 77/209/185 89/243/219 57/207/183
f 57/207/183 89/243/219 96/244/220
f 57/207/183 96/244/220 91/245/221
f 91/245/221 96/244/220 95/246/222
f 91/245/221 95/246/222 94/247/223
f 94/247/223 93/248/224 91/245/221
f 91/245/221 93/248/224 92/249/225
f 91/245/221 59/250/226 57/207/183
g Body133

v 0.000000 2.068799 -1.080001
v 0.000000 0.480468 -1.226221
v -5.720000 0.480468 -1.226221
v -5.720000 1.058883 -1.066733
v -4.290000 1.311362 -1.070050
v -2.860000 1.563841 -1.073367
v -1.430000 1.148394 -1.151453
v -3.575000 0.959035 -1.148965
v -4.290000 0.895915 -1.148136
v -2.860000 1.022155 -1.149794
v -2.145000 1.085275 -1.150623
v 0.000000 2.068799 -0.980001
v -5.720000 1.058883 -0.993269
v -4.290000 1.311362 -0.989952
v -2.860000 1.563841 -0.986635
v 0.000000 0.480468 -0.833782
v -5.720000 0.480468 -0.833782
v -2.145000 1.085275 -0.909379
v -1.430000 1.148394 -0.908550
v -2.860000 1.022155 -0.910208
v -3.575000 0.959035 -0.911038
v -4.290000 0.895915 -0.911867
v -5.720000 0.130468 -1.226221
v -5.720000 -0.394238 -1.030001
v -5.720000 0.130468 -0.833782
v 5.720000 0.480468 -1.226221
v 5.720000 0.130468 -1.226221
v 0.000000 0.130468 -1.226221
v 2.860000 1.563841 -1.073367
v 4.290000 1.311362 -1.070050
v 5.720000 1.058883 -1.066733
v 2.145000 1.085275 -1.150623
v 1.430000 1.148394 -1.151453
v 2.860000 1.022155 -1.149794
v 3.575000 0.959035 -1.148965
v 4.290000 0.895915 -1.148136
v 2.860000 1.563841 -0.986635
v 4.290000 1.311362 -0.989952
v 5.720000 1.058883 -0.993269
v 5.720000 0.480468 -0.833782
v 1.430000 1.148394 -0.908550
v 3.575000 0.959035 -0.911038
v 4.290000 0.895915 -0.911867
v 2.860000 1.022155 -0.910208
v 2.145000 1.085275 -0.909379
v 0.000000 0.130468 -0.833782
v 5.720000 0.130468 -0.833782
v 5.720000 -0.394238 -1.030001
v 0.000000 -0.394238 -1.030001
vt -1.094103 2.871125 0.000000
vt -1.094103 0.000000 0.000000
vt -0.547051 1.435562 0.000000
vt -0.000000 0.000000 0.000000
vt -0.547051 2.153343 0.000000
vt -0.547051 2.871125 0.000000
vt -0.547051 3.588906 0.000000
vt -1.094103 4.306687 0.000000
vt -0.547051 4.306687 0.000000
vt -1.094103 5.742249 0.000000
vt -0.000000 5.742249 0.000000
vt -0.100000 0.000000 0.000000
vt -0.000000 0.000000 0.000000
vt -0.093366 2.904235 0.000000
vt -0.006634 2.904235 0.000000
vt -0.090049 4.356353 0.000000
vt -0.009951 4.356353 0.000000
vt -0.086732 5.808471 0.000000
vt -0.013268 5.808471 0.000000
vt -0.000000 0.000000 0.000000
vt -0.547051 1.435562 0.000000
vt -1.094103 0.000000 0.000000
vt -0.547051 2.153343 0.000000
vt -0.547051 2.871125 0.000000
vt -0.000000 2.871125 0.000000
vt -0.547051 3.588906 0.000000
vt -0.000000 4.306687 0.000000
vt -0.547051 4.306687 0.000000
vt -0.000000 5.742249 0.000000
vt -1.094103 5.742249 0.000000
vt -0.196220 0.194297 0.000000
vt -0.000000 -0.330410 0.000000
vt -0.196220 0.544297 0.000000
vt -0.036732 1.122712 0.000000
vt 0.036732 1.122712 0.000000
vt 0.196220 0.544297 0.000000
vt 0.196220 0.194297 0.000000
vt -5.720000 0.350000 0.000000
vt 0.000000 0.000000 0.000000
vt 0.000000 0.350000 0.000000
vt 5.720000 0.000000 0.000000
vt 5.720000 0.350000 0.000000
vt -5.720000 0.000000 0.000000
vt 1.094103 0.000000 0.000000
vt 0.547051 1.435562 0.000000
vt 0.000000 0.000000 0.000000
vt 0.547051 2.153343 0.000000
vt 0.547051 2.871125 0.000000
vt 1.094103 2.871125 0.000000
vt 0.547051 3.588906 0.000000
vt 1.094103 4.306687 0.000000
vt 0.547051 4.306687 0.000000
vt 1.094103 5.742249 0.000000
vt 0.000000 5.742249 0.000000
vt 0.000000 0.000000 0.000000
vt 0.100000 0.000000 0.000000
vt 0.006634 2.904235 0.000000
vt 0.093366 2.904235 0.000000
vt 0.009951 4.356353 0.000000
vt 0.090049 4.356353 0.000000
vt 0.013268 5.808471 0.000000
vt 0.086732 5.808471 0.000000
vt 0.000000 2.871125 0.000000
vt 0.000000 0.000000 0.000000
vt 0.547051 1.435562 0.000000
vt 1.094103 0.000000 0.000000
vt 0.547051 2.153343 0.000000
vt 0.547051 2.871125 0.000000
vt 0.547051 3.588906 0.000000
vt 0.000000 4.306687 0.000000
vt 0.547051 4.306687 0.000000
vt 0.000000 5.742249 0.000000
vt 1.094103 5.742249 0.000000
vt -5.720000 -0.350000 0.000000
vt 0.000000 -0.350000 0.000000
vt -5.720000 0.000000 0.000000
vt 0.000000 0.000000 0.000000
vt 5.720000 -0.350000 0.000000
vt 5.720000 0.000000 0.000000
vt 0.196220 0.194297 0.000000
vt 0.196220 0.544297 0.000000
vt 0.000000 -0.330410 0.000000
vt 0.036732 1.122712 0.000000
vt -0.036732 1.122712 0.000000
vt -0.196220 0.544297 0.000000
vt -0.196220 0.194297 0.000000
vt 5.720000 0.560196 0.000000
vt 0.000000 0.560196 0.000000
vt 5.720000 0.000000 0.000000
vt 0.000000 0.000000 0.000000
vt -5.720000 0.560196 0.000000
vt -5.720000 0.000000 0.000000
vt -5.720000 -0.560196 0.000000
vt -0.000000 -0.560196 0.000000
vt -5.720000 0.000000 0.000000
vt 0.000000 0.000000 0.000000
vt 5.720000 -0.560196 0.000000
vt 5.720000 -0.000000 0.000000
vn -0.026954 0.139656 -0.989833
vn -0.018492 0.091655 -0.995619
vn -0.010973 0.111240 -0.993733
vn -0.000000 0.091671 -0.995789
vn -0.012099 0.124021 -0.992206
vn -0.013480 0.139694 -0.990103
vn -0.015212 0.159351 -0.987105
vn -0.034872 0.184608 -0.982193
vn -0.017444 0.184693 -0.982642
vn -0.049108 0.265492 -0.962861
vn -0.000000 0.265813 -0.964025
vn -0.173869 0.984769 -0.000000
vn -0.173869 0.984769 -0.000000
vn -0.173869 0.984769 -0.000000
vn -0.173869 0.984769 -0.000000
vn -0.173869 0.984769 -0.000000
vn -0.173869 0.984769 -0.000000
vn -0.173869 0.984769 -0.000000
vn -0.173869 0.984769 -0.000000
vn -0.018492 0.091655 0.995619
vn -0.010973 0.111240 0.993733
vn 0.000000 0.091671 0.995789
vn -0.012099 0.124021 0.992206
vn -0.013480 0.139694 0.990103
vn -0.026954 0.139656 0.989833
vn -0.015212 0.159351 0.987105
vn -0.034872 0.184608 0.982193
vn -0.017444 0.184693 0.982642
vn -0.049108 0.265492 0.962861
vn 0.000000 0.265813 0.964025
vn -1.000000 -0.000000 0.000000
vn -1.000000 -0.000000 0.000000
vn -1.000000 -0.000000 0.000000
vn -1.000000 -0.000000 0.000000
vn -1.000000 -0.000000 0.000000
vn -1.000000 -0.000000 0.000000
vn -1.000000 -0.000000 0.000000
vn -0.000000 -0.000000 -1.000000
vn -0.000000 -0.000000 -1.000000
vn -0.000000 -0.000000 -1.000000
vn -0.000000 -0.000000 -1.000000
vn -0.000000 -0.000000 -1.000000
vn -0.000000 -0.000000 -1.000000
vn 0.018492 0.091655 -0.995619
vn 0.010973 0.111240 -0.993733
vn 0.012099 0.124021 -0.992206
vn 0.013480 0.139694 -0.990103
vn 0.026954 0.139656 -0.989833
vn 0.015212 0.159351 -0.987105
vn 0.034872 0.184608 -0.982193
vn 0.017444 0.184693 -0.982642
vn 0.049108 0.265492 -0.962861
vn 0.000000 0.265813 -0.964025
vn 0.173869 0.984769 -0.000000
vn 0.173869 0.984769 -0.000000
vn 0.173869 0.984769 -0.000000
vn 0.173869 0.984769 -0.000000
vn 0.173869 0.984769 -0.000000
vn 0.173869 0.984769 -0.000000
vn 0.173869 0.984769 -0.000000
vn 0.173869 0.984769 -0.000000
vn 0.026954 0.139656 0.989833
vn 0.018492 0.091655 0.995619
vn 0.010973 0.111240 0.993733
vn 0.012099 0.124021 0.992206
vn 0.013480 0.139694 0.990103
vn 0.015212 0.159351 0.987105
vn 0.034872 0.184608 0.982193
vn 0.017444 0.184693 0.982642
vn 0.049108 0.265492 0.962861
vn -0.000000 0.265813 0.964025
vn -0.000000 0.000000 1.000000
vn -0.000000 0.000000 1.000000
vn -0.000000 0.000000 1.000000
vn -0.000000 0.000000 1.000000
vn -0.000000 0.000000 1.000000
vn -0.000000 0.000000 1.000000
vn 1.000000 -0.000000 0.000000
vn 1.000000 -0.000000 0.000000
vn 1.000000 -0.000000 0.000000
vn 1.000000 -0.000000 0.000000
vn 1.000000 -0.000000 0.000000
vn 1.000000 -0.000000 0.000000
vn 1.000000 -0.000000 0.000000
vn 0.000000 -0.350270 -0.936649
vn 0.000000 -0.350270 -0.936649
vn 0.000000 -0.350270 -0.936649
vn 0.000000 -0.350270 -0.936649
vn 0.000000 -0.350270 -0.936649
vn 0.000000 -0.350270 -0.936649
vn -0.000000 -0.350270 0.936649
vn -0.000000 -0.350270 0.936649
vn -0.000000 -0.350270 0.936649
vn -0.000000 -0.350270 0.936649
vn -0.000000 -0.350270 0.936649
vn -0.000000 -0.350270 0.936649
f 108/251/227 103/252/228 109/253/229
f 109/253/229 103/252/228 104/254/230
f 109/253/229 104/254/230 113/255/231
f 113/255/231 104/254/230 112/256/232
f 113/255/231 112/256/232 108/251/227
f 108/251/227 112/256/232 110/257/233
f 108/251/227 110/257/233 107/258/234
f 107/258/234 110/257/233 111/259/235
f 107/258/234 111/259/235 106/260/236
f 106/260/236 111/259/235 105/261/237
f 105/261/237 111/259/235 110/257/233
f 105/261/237 110/257/233 112/256/232
f 104/254/230 105/261/237 112/256/232
f 113/255/231 108/251/227 109/253/229
f 114/262/238 103/263/239 117/264/240
f 117/264/240 103/263/239 108/265/241
f 117/264/240 108/265/241 116/266/242
f 116/266/242 108/265/241 107/267/243
f 116/266/242 107/267/243 115/268/244
f 115/268/244 107/267/243 106/269/245
f 114/270/246 121/271/247 118/272/248
f 118/272/248 121/271/247 120/273/249
f 118/272/248 120/273/249 122/274/250
f 122/274/250 120/273/249 117/275/251
f 122/274/250 117/275/251 123/276/252
f 123/276/252 117/275/251 116/277/253
f 123/276/252 116/277/253 124/278/254
f 124/278/254 116/277/253 115/279/255
f 124/278/254 115/279/255 119/280/256
f 114/270/246 117/275/251 121/271/247
f 121/271/247 117/275/251 120/273/249
f 124/278/254 119/280/256 123/276/252
f 123/276/252 119/280/256 118/272/248
f 123/276/252 118/272/248 122/274/250
f 125/281/257 126/282/258 105/283/259
f 105/283/259 126/282/258 106/284/260
f 106/284/260 126/282/258 115/285/261
f 115/285/261 126/282/258 119/286/262
f 119/286/262 126/282/258 127/287/263
f 128/288/264 130/289/265 104/290/266
f 104/290/266 130/289/265 125/291/267
f 104/290/266 125/291/267 105/292/268
f 128/288/264 129/293/269 130/289/265
f 103/294/270 135/295/271 104/296/230
f 104/296/230 135/295/271 134/297/272
f 104/296/230 134/297/272 136/298/273
f 136/298/273 134/297/272 131/299/274
f 136/298/273 131/299/274 137/300/275
f 137/300/275 131/299/274 132/301/276
f 137/300/275 132/301/276 138/302/277
f 138/302/277 132/301/276 133/303/278
f 138/302/277 133/303/278 128/304/279
f 103/294/270 131/299/274 135/295/271
f 135/295/271 131/299/274 134/297/272
f 138/302/277 128/304/279 137/300/275
f 137/300/275 128/304/279 104/296/230
f 137/300/275 104/296/230 136/298/273
f 103/305/280 114/306/281 131/307/282
f 131/307/282 114/306/281 139/308/283
f 131/307/282 139/308/283 132/309/284
f 132/309/284 139/308/283 140/310/285
f 132/309/284 140/310/285 133/311/286
f 133/311/286 140/310/285 141/312/287
f 139/313/288 114/314/289 143/315/290
f 143/315/290 114/314/289 118/316/248
f 143/315/290 118/316/248 147/317/291
f 147/317/291 118/316/248 146/318/292
f 147/317/291 146/318/292 139/313/288
f 139/313/288 146/318/292 144/319/293
f 139/313/288 144/319/293 140/320/294
f 140/320/294 144/319/293 145/321/295
f 140/320/294 145/321/295 141/322/296
f 141/322/296 145/321/295 142/323/297
f 142/323/297 145/321/295 144/319/293
f 142/323/297 144/319/293 146/318/292
f 118/316/248 142/323/297 146/318/292
f 147/317/291 139/313/288 143/315/290
f 127/324/298 148/325/299 119/326/300
f 119/326/300 148/325/299 118/327/301
f 118/327/301 148/325/299 149/328/302
f 118/327/301 149/328/302 142/329/303
f 129/330/304 128/331/305 150/332/306
f 150/332/306 128/331/305 133/333/307
f 150/332/306 133/333/307 141/334/308
f 141/334/308 142/335/309 150/332/306
f 150/332/306 142/335/309 149/336/310
f 125/337/311 130/338/312 126/339/313
f 126/339/313 130/338/312 151/340/314
f 151/340/314 130/338/312 129/341/315
f 151/340/314 129/341/315 150/342/316
f 126/343/317 151/344/318 127/345/319
f 127/345/319 151/344/318 148/346/320
f 148/346/320 151/344/318 150/347/321
f 148/346/320 150/347/321 149/348/322
g Body134

v -5.720000 1.058883 -0.993269
v -5.720000 2.108883 -0.993269
v -5.720000 2.108883 -1.043269
v -5.720000 1.089732 -1.030001
v 0.000000 2.068799 -0.980001
v 0.000000 3.118799 -0.980001
v 0.000000 3.118799 -1.030001
v 0.000000 2.110000 -1.030001
v -2.860000 2.106854 -1.033318
v -1.906667 1.751036 -1.007213
v -3.813333 1.412672 -1.009424
v -2.860000 1.581854 -1.008318
v -0.953333 1.920218 -1.006107
v -4.766667 1.243490 -1.010530
v 5.720000 2.108883 -0.993269
v 5.720000 1.058883 -0.993269
v 5.720000 1.089732 -1.030001
v 5.720000 2.108883 -1.043269
v 2.860000 2.106854 -1.033318
v 1.906667 1.751036 -1.007213
v 3.813333 1.412672 -1.009424
v 2.860000 1.581854 -1.008318
v 0.953333 1.920218 -1.006107
v 4.766667 1.243490 -1.010530
vt 0.021378 -0.533088 0.000000
vt 0.021378 0.516912 0.000000
vt -0.015354 -0.502239 0.000000
vt -0.028622 0.516912 0.000000
vt 0.000000 1.050000 0.000000
vt -5.720015 0.040084 0.000000
vt 0.000000 0.000000 0.000000
vt -5.720015 -1.009916 0.000000
vt 0.000000 -0.000000 0.000000
vt 0.050000 0.000000 0.000000
vt 0.013268 5.808471 0.000000
vt 0.063268 5.808471 0.000000
vt 0.000000 5.809376 0.000000
vt 0.000000 0.000000 0.000000
vt 0.506998 2.904688 0.000000
vt 1.013997 0.000000 0.000000
vt 1.013997 5.809376 0.000000
vt 0.056377 0.000000 0.000000
vt 0.028189 0.968229 0.000000
vt 0.000000 0.000000 0.000000
vt 0.028189 1.936459 0.000000
vt 0.028189 2.904688 0.000000
vt 0.056377 5.809376 0.000000
vt 0.000000 5.809376 0.000000
vt 0.028189 4.841147 0.000000
vt 0.028189 3.872918 0.000000
vt -0.021378 -0.533088 0.000000
vt 0.015354 -0.502239 0.000000
vt -0.021378 0.516912 0.000000
vt 0.028622 0.516912 0.000000
vt -0.000000 1.050000 0.000000
vt -0.000000 0.000000 0.000000
vt 5.720015 0.040084 0.000000
vt 5.720015 -1.009916 0.000000
vt -0.000000 0.000000 0.000000
vt -0.013268 5.808471 0.000000
vt -0.050000 0.000000 0.000000
vt -0.063268 5.808471 0.000000
vt -1.013997 5.809376 0.000000
vt -1.013997 0.000000 0.000000
vt -0.506998 2.904688 0.000000
vt -0.000000 0.000000 0.000000
vt -0.000000 5.809376 0.000000
vt -0.000000 0.000000 0.000000
vt -0.028189 0.968229 0.000000
vt -0.056377 0.000000 0.000000
vt -0.028189 1.936459 0.000000
vt -0.028189 2.904688 0.000000
vt -0.000000 5.809376 0.000000
vt -0.056377 5.809376 0.000000
vt -0.028189 4.841147 0.000000
vt -0.028189 3.872918 0.000000
vn -1.000000 -0.000000 -0.000000
vn -1.000000 -0.000000 -0.000000
vn -1.000000 -0.000000 -0.000000
vn -1.000000 -0.000000 -0.000000
vn -0.002320 0.000000 0.999997
vn -0.002320 0.000000 0.999997
vn -0.002320 0.000000 0.999997
vn -0.002320 0.000000 0.999997
vn -0.173869 0.984769 0.000000
vn -0.173869 0.984769 0.000000
vn -0.173869 0.984769 0.000000
vn -0.173869 0.984769 0.000000
vn 0.004618 -0.013018 -0.999905
vn 0.002320 0.000000 -0.999997
vn 0.002321 -0.006542 -0.999976
vn -0.000000 0.000000 -1.000000
vn 0.002322 -0.013018 -0.999913
vn 0.136445 -0.764527 -0.629985
vn 0.136276 -0.763784 -0.630922
vn 0.136369 -0.764535 -0.629992
vn 0.136132 -0.762966 -0.631942
vn 0.135973 -0.762064 -0.633063
vn 0.135435 -0.758708 -0.637197
vn 0.135332 -0.758719 -0.637206
vn 0.135602 -0.759956 -0.635672
vn 0.135797 -0.761067 -0.634300
vn 1.000000 -0.000000 -0.000000
vn 1.000000 -0.000000 -0.000000
vn 1.000000 -0.000000 -0.000000
vn 1.000000 -0.000000 -0.000000
vn 0.002320 0.000000 0.999997
vn 0.002320 0.000000 0.999997
vn 0.002320 0.000000 0.999997
vn 0.002320 0.000000 0.999997
vn 0.173869 0.984769 0.000000
vn 0.173869 0.984769 0.000000
vn 0.173869 0.984769 0.000000
vn 0.173869 0.984769 0.000000
vn -0.002322 -0.013018 -0.999913
vn -0.002321 -0.006542 -0.999976
vn -0.002320 0.000000 -0.999997
vn -0.004618 -0.013018 -0.999905
vn -0.136369 -0.764535 -0.629992
vn -0.136276 -0.763784 -0.630922
vn -0.136445 -0.764527 -0.629985
vn -0.136132 -0.762966 -0.631942
vn -0.135973 -0.762064 -0.633063
vn -0.135332 -0.758719 -0.637206
vn -0.135435 -0.758708 -0.637197
vn -0.135602 -0.759956 -0.635672
vn -0.135797 -0.761067 -0.634300
f 152/349/323 153/350/324 155/351/325
f 155/351/325 153/350/324 154/352/326
f 157/353/327 153/354/328 156/355/329
f 156/355/329 153/354/328 152/356/330
f 157/357/331 158/358/332 153/359/333
f 153/359/333 158/358/332 154/360/334
f 154/361/335 158/362/336 160/363/337
f 160/363/337 158/362/336 159/364/338
f 160/363/337 159/364/338 155/365/339
f 155/365/339 154/361/335 160/363/337
f 156/366/340 164/367/341 159/368/342
f 159/368/342 164/367/341 161/369/343
f 159/368/342 161/369/343 163/370/344
f 163/370/344 161/369/343 156/366/340
f 163/370/344 156/366/340 152/371/345
f 155/372/346 165/373/347 152/371/345
f 152/371/345 165/373/347 162/374/348
f 152/371/345 162/374/348 163/370/344
f 163/370/344 162/374/348 155/372/346
f 163/370/344 155/372/346 159/368/342
f 156/366/340 161/369/343 164/367/341
f 165/373/347 155/372/346 162/374/348
f 167/375/349 168/376/350 166/377/351
f 166/377/351 168/376/350 169/378/352
f 157/379/353 156/380/354 166/381/355
f 166/381/355 156/380/354 167/382/356
f 157/383/357 166/384/358 158/385/359
f 158/385/359 166/384/358 169/386/360
f 168/387/361 159/388/338 170/389/362
f 170/389/362 159/388/338 158/390/363
f 170/389/362 158/390/363 169/391/364
f 169/391/364 168/387/361 170/389/362
f 159/392/365 174/393/366 156/394/367
f 156/394/367 174/393/366 171/395/368
f 156/394/367 171/395/368 173/396/369
f 173/396/369 171/395/368 159/392/365
f 173/396/369 159/392/365 168/397/370
f 167/398/371 175/399/372 168/397/370
f 168/397/370 175/399/372 172/400/373
f 168/397/370 172/400/373 173/396/369
f 173/396/369 172/400/373 167/398/371
f 173/396/369 167/398/371 156/394/367
f 159/392/365 171/395/368 174/393/366
f 175/399/372 167/398/371 172/400/373
# 175 vertices
# 400 texture params
# 373 normals
# 334 facets

# 4 groups
